<?xml version="1.0"?>
<svg width="150" height="108" xmlns="http://www.w3.org/2000/svg" xmlns:svg="http://www.w3.org/2000/svg">

 <g class="layer">
  <title>Layer 1</title>
  <path d="m92.15,104.64c-10.34,-1.5 -15.62,-5.94 -19.03,-13.83c-3.67,-8.92 -2.25,-16.34 -2.32,-15.95c0.52,-3.69 1.73,-7.11 4.23,-9.91c2.38,3.24 2.83,4.79 3.39,6.54c-2.47,2.29 -7.33,20.9 10.94,27.15c21.13,7.22 34.34,-21.17 14.76,-32.39c-4.34,-2.47 -9.6,-3.58 -14.29,-1.57c-1.09,-3.06 -2.23,-5.14 -3.6,-7.2c1.76,-0.82 6.88,-5.28 19.19,-0.13c24.11,10.55 20.85,51.67 -13.27,47.29zm-21.08,-12.11c-7.95,4.43 -17.07,2.9 -24.34,-2.6c-12.28,-9.57 -8.29,-21.71 -8.91,-18.4c2.15,-15.21 22.3,-22.57 35.56,-8.48c-6.99,7.64 -6.38,20.41 -2.31,29.48zm8.29,-16.74c0.26,2.71 0.11,5.37 -0.68,7.97c-0.48,-2.91 -0.03,-5.55 0.68,-7.97zm21.45,-8.26c21.72,9.42 5.86,39.38 -14.97,26.68c6.14,-7.82 7.29,-17.92 4.78,-27.09c3.34,-1.42 6.77,-0.95 10.19,0.41zm-70.97,10.36c0.92,5.19 -5.4,-20.71 16.79,-30.23c2.43,-0.99 5.05,-1.71 7.79,-2.08c-0.04,0 -0.07,0.01 -0.11,0.01c4.52,-0.54 8.21,0.04 8.02,0.01c5.6,0.78 10.49,2.81 14.92,6.14c-0.02,-0.02 -0.05,-0.04 -0.07,-0.06c0.05,0.04 0.24,0.18 0.28,0.21c-0.03,-0.01 -0.04,-0.03 -0.06,-0.04c16.32,12.88 10.71,32.82 11.57,27.99c-1.12,8.25 -5.21,12.6 -4.71,12.01c-0.28,0.35 -0.38,0.47 -0.6,0.78c-1.75,-1.52 -3.17,-3.22 -4.07,-5.49c0.32,-0.1 0.66,-0.3 0.78,-0.59c8.05,-18.6 -11.99,-38.88 -30.47,-32.5c-22.02,7.63 -18.18,36.41 4.97,42.73c5.62,1.54 11.68,1.1 17.32,-1.98c0.98,1.8 1.97,3.27 3.65,5.05c-18.97,8.63 -43.13,-1.03 -46,-21.96zm76.63,-22.97c-10.93,-4.7 -19.43,-1.98 -21.69,0.55c-10.15,-12.86 -27.95,-16.33 -41.78,-9.04c-29.83,15.75 -15.9,65.71 24.94,58.54c3.46,-0.61 6.92,-1.79 9.94,-3.27c9.67,7.61 27.29,7.92 36.95,0.17c13.43,-10.77 11.95,-38.2 -8.36,-46.95z" fill="#734D37" id="svg_1"/>
  <path d="m17.17,56.57c-2.33,-1.09 -4.66,-2.16 -7.05,-3.11c-1.48,-0.57 -2.61,1.88 -0.72,2.6c2.4,0.95 4.58,1.9 6.45,2.77c0.8,0.37 1.46,0.11 1.79,-0.47c0.34,-0.57 0.18,-1.48 -0.47,-1.79z" fill="#734D37" id="svg_2"/>
  <path d="m11.46,66.02c-1.13,-0.17 -3.53,-0.67 -3.53,-0.67c-1.68,0 -1.93,2.34 -0.38,2.75c2.38,0.64 4.84,0.89 7.3,0.91c0.76,0.01 1.39,-0.63 1.39,-1.38c0,-1.76 -1.84,-1.25 -4.78,-1.61z" fill="#734D37" id="svg_3"/>
  <path d="m14.59,77.71c-0.64,0 -4.75,1 -5.39,1.17c-1.76,0.45 -1.12,3.2 0.75,2.72c1.66,-0.41 3.32,-0.79 5,-1.12c0.75,-0.15 1.18,-1.04 0.99,-1.75c-0.16,-0.56 -0.68,-1.02 -1.35,-1.02z" fill="#734D37" id="svg_4"/>
  <path d="m139.25,63.96c0.58,-0.25 1.17,-0.48 1.77,-0.7c0.85,-0.33 1.13,-1.01 0.95,-1.68c-0.51,-1.81 -2.16,-1.05 -10.36,2.96c-0.67,0.33 -0.85,1.26 -0.49,1.87c0.95,1.62 2.29,0.05 8.13,-2.45z" fill="#734D37" id="svg_5"/>
  <path d="m134.23,73.94c-0.89,0.07 -1.35,0.67 -1.35,1.35c0,1.9 1.72,1.4 9.25,0.58c0.92,-0.1 1.35,-0.68 1.35,-1.35c0,-2.04 -1.82,-1.17 -9.25,-0.58z" fill="#734D37" id="svg_6"/>
  <path d="m133.8,84.22c-1.65,-0.92 -2.91,1.53 -1.38,2.38c2.5,1.4 9.08,3.67 9.08,0.81c0,-2.35 -2.63,-0.37 -7.7,-3.19z" fill="#734D37" id="svg_7"/>
  <text fill="rgb(0, 0, 0)" font-family="&#x27;Devanagari MT&#x27;" font-size="28px" font-weight="700" id="svg_8" style="cursor: move;" transform="matrix(0.947295 0 0 0.845435 4.68693 1.18117)" x="4.58" y="34.68">02 / 03 / 25</text>
 </g>
</svg>