<?xml version="1.0" encoding="utf-8"?>
<svg viewBox="0 0 500 500" xmlns="http://www.w3.org/2000/svg">
  <defs/>
  <circle cx="309.03" cy="141.226" r="90" fill="#FFFCF9"/>
  <path d="M 322.146 162.435 C 314.282 161.297 310.271 157.922 307.675 151.923 C 304.881 145.136 305.965 139.496 305.909 139.794 C 306.305 136.983 307.226 134.383 309.125 132.258 C 310.939 134.716 311.281 135.896 311.706 137.23 C 309.825 138.967 306.127 153.122 320.028 157.874 C 336.094 163.363 346.144 141.779 331.252 133.243 C 327.951 131.364 323.946 130.52 320.386 132.046 C 319.554 129.719 318.69 128.143 317.647 126.571 C 318.981 125.95 322.876 122.562 332.238 126.476 C 350.575 134.498 348.095 165.768 322.146 162.435 Z M 306.114 153.23 C 300.069 156.602 293.13 155.432 287.602 151.252 C 278.262 143.978 281.301 134.743 280.83 137.262 C 282.461 125.694 297.791 120.091 307.871 130.812 C 302.557 136.619 303.023 146.335 306.114 153.23 Z M 312.422 140.502 C 312.614 142.56 312.506 144.583 311.901 146.562 C 311.539 144.347 311.878 142.34 312.422 140.502 Z M 328.728 134.216 C 345.251 141.38 333.188 164.161 317.35 154.506 C 322.015 148.558 322.888 140.88 320.984 133.908 C 323.526 132.822 326.134 133.182 328.728 134.216 Z M 274.758 142.095 C 275.458 146.046 270.651 126.346 287.526 119.104 C 289.374 118.351 291.369 117.804 293.45 117.522 C 293.425 117.526 293.398 117.531 293.373 117.535 C 296.809 117.119 299.617 117.564 299.471 117.538 C 303.729 118.131 307.447 119.674 310.815 122.207 C 310.798 122.192 310.781 122.178 310.763 122.163 C 310.803 122.194 310.942 122.302 310.971 122.324 C 310.955 122.314 310.941 122.302 310.926 122.291 C 323.34 132.084 319.072 147.254 319.727 143.579 C 318.874 149.856 315.767 153.159 316.143 152.715 C 315.934 152.979 315.855 153.068 315.69 153.307 C 314.361 152.151 313.282 150.858 312.595 149.127 C 312.839 149.058 313.095 148.899 313.19 148.679 C 319.311 134.539 304.069 119.116 290.018 123.964 C 273.273 129.771 276.189 151.655 293.794 156.459 C 298.071 157.636 302.677 157.299 306.97 154.952 C 307.714 156.324 308.469 157.443 309.743 158.794 C 295.315 165.356 276.939 158.01 274.758 142.095 Z M 333.034 124.627 C 324.723 121.051 318.261 123.124 316.542 125.042 C 308.823 115.262 295.287 112.626 284.769 118.168 C 262.079 130.148 272.674 168.14 303.737 162.688 C 306.365 162.229 309.001 161.331 311.298 160.207 C 318.647 165.989 332.044 166.223 339.394 160.335 C 349.611 152.14 348.483 131.279 333.034 124.627 Z" fill="#734D37"/>
  <path d="M 265.127 125.884 C 263.351 125.056 261.581 124.238 259.763 123.515 C 258.634 123.083 257.777 124.947 259.217 125.494 C 261.043 126.219 262.699 126.935 264.122 127.603 C 264.726 127.879 265.229 127.68 265.482 127.244 C 265.737 126.811 265.617 126.114 265.127 125.884 Z" fill="#734D37"/>
  <path d="M 260.782 133.068 C 259.919 132.942 258.099 132.562 258.099 132.562 C 256.822 132.562 256.63 134.338 257.805 134.652 C 259.617 135.138 261.491 135.324 263.362 135.346 C 263.934 135.351 264.414 134.862 264.414 134.294 C 264.414 132.951 263.021 133.339 260.782 133.068 Z" fill="#734D37"/>
  <path d="M 263.163 141.958 C 262.678 141.958 259.546 142.722 259.061 142.847 C 257.725 143.191 258.211 145.286 259.634 144.92 C 260.894 144.608 262.159 144.316 263.435 144.066 C 264.009 143.952 264.331 143.275 264.186 142.738 C 264.067 142.307 263.67 141.958 263.163 141.958 Z" fill="#734D37"/>
  <path d="M 357.963 131.502 C 358.408 131.314 358.857 131.138 359.313 130.966 C 359.955 130.722 360.168 130.202 360.032 129.695 C 359.647 128.312 358.393 128.892 352.152 131.946 C 351.647 132.195 351.511 132.903 351.783 133.362 C 352.507 134.6 353.524 133.406 357.963 131.502 Z" fill="#734D37"/>
  <path d="M 354.148 139.095 C 353.475 139.146 353.122 139.602 353.122 140.122 C 353.122 141.562 354.43 141.186 360.159 140.559 C 360.855 140.48 361.184 140.04 361.184 139.532 C 361.184 137.979 359.802 138.64 354.148 139.095 Z" fill="#734D37"/>
  <path d="M 353.824 146.91 C 352.564 146.207 351.61 148.071 352.768 148.718 C 354.674 149.782 359.674 151.512 359.674 149.332 C 359.674 147.548 357.674 149.055 353.824 146.91 Z" fill="#734D37"/>
  <text style="white-space: pre; fill: rgb(51, 51, 51); font-family: Arial, sans-serif; font-size: 28px;" x="242.272" y="112.635" transform="matrix(0.740257, 0, 0, 0.752811, 77.104958, 18.324181)">02 / 03 / 25</text>
</svg>