<?xml version="1.0"?>
<svg width="180" height="180" xmlns="http://www.w3.org/2000/svg" xmlns:svg="http://www.w3.org/2000/svg">
 <g class="layer">
  <title>Layer 1</title>
  <circle cx="90" cy="90" fill="#FFFCF9" id="svg_1" r="88" transform="matrix(1 0 0 1 0 0)"/>
  <path d="m103.12,102.25c-7.86,-1.14 -11.87,-4.51 -14.47,-10.51c-2.79,-6.79 -1.71,-12.43 -1.76,-12.13c0.39,-2.81 1.31,-5.41 3.21,-7.54c1.82,2.46 2.16,3.64 2.58,4.97c-1.88,1.74 -5.58,15.9 8.32,20.65c16.07,5.49 26.12,-16.1 11.23,-24.63c-3.3,-1.88 -7.31,-2.73 -10.87,-1.2c-0.83,-2.33 -1.69,-3.9 -2.74,-5.47c1.34,-0.63 5.23,-4.01 14.6,-0.1c18.33,8.02 15.85,39.29 -10.1,35.96zm-16.03,-9.21c-6.04,3.38 -12.98,2.21 -18.51,-1.97c-9.34,-7.28 -6.3,-16.51 -6.77,-13.99c1.63,-11.57 16.96,-17.17 27.04,-6.45c-5.32,5.8 -4.85,15.52 -1.76,22.41zm6.31,-12.72c0.19,2.05 0.08,4.08 -0.52,6.06c-0.36,-2.22 -0.03,-4.23 0.52,-6.06zm16.3,-6.29c16.53,7.16 4.47,29.95 -11.37,20.29c4.66,-5.95 5.53,-13.63 3.63,-20.6c2.54,-1.08 5.15,-0.72 7.74,0.31zm-53.97,7.88c0.7,3.95 -4.1,-15.75 12.77,-22.99c1.85,-0.75 3.85,-1.3 5.93,-1.58c-0.03,0 -0.06,0.01 -0.08,0.01c3.44,-0.42 6.24,0.03 6.1,0c4.26,0.6 7.97,2.14 11.34,4.67c-0.02,-0.01 -0.03,-0.03 -0.05,-0.04c0.04,0.03 0.18,0.14 0.21,0.16c-0.02,-0.01 -0.03,-0.02 -0.05,-0.03c12.42,9.79 8.15,24.96 8.8,21.28c-0.85,6.28 -3.96,9.58 -3.58,9.14c-0.21,0.26 -0.29,0.35 -0.45,0.59c-1.33,-1.15 -2.41,-2.45 -3.1,-4.18c0.25,-0.07 0.5,-0.23 0.6,-0.45c6.12,-14.14 -9.12,-29.56 -23.18,-24.71c-16.74,5.81 -13.82,27.69 3.78,32.49c4.28,1.18 8.88,0.84 13.18,-1.5c0.74,1.37 1.5,2.49 2.77,3.84c-14.43,6.56 -32.8,-0.79 -34.99,-16.7zm58.28,-17.47c-8.31,-3.57 -14.77,-1.5 -16.49,0.42c-7.72,-9.78 -21.26,-12.42 -31.77,-6.88c-22.69,11.98 -12.1,49.97 18.96,44.52c2.63,-0.46 5.27,-1.35 7.56,-2.48c7.35,5.78 20.75,6.02 28.1,0.13c10.22,-8.2 9.09,-29.06 -6.36,-35.71z" fill="#734D37" id="svg_10"/>
  <path d="m46.1,65.7c-1.77,-0.83 -3.54,-1.65 -5.36,-2.37c-1.13,-0.43 -1.99,1.43 -0.55,1.98c1.83,0.72 3.49,1.44 4.91,2.11c0.6,0.27 1.11,0.07 1.36,-0.36c0.25,-0.43 0.13,-1.13 -0.36,-1.36z" fill="#734D37" id="svg_11"/>
  <path d="m41.76,72.88c-0.86,-0.12 -2.68,-0.5 -2.68,-0.5c-1.28,0 -1.47,1.77 -0.3,2.09c1.81,0.48 3.69,0.67 5.56,0.69c0.57,0.01 1.05,-0.48 1.05,-1.05c0,-1.34 -1.39,-0.96 -3.63,-1.23z" fill="#734D37" id="svg_12"/>
  <path d="m44.14,81.77c-0.49,0 -3.62,0.77 -4.1,0.89c-1.34,0.35 -0.85,2.44 0.57,2.07c1.26,-0.31 2.53,-0.6 3.8,-0.85c0.58,-0.11 0.9,-0.79 0.75,-1.33c-0.12,-0.43 -0.51,-0.78 -1.02,-0.78z" fill="#734D37" id="svg_13"/>
  <path d="m138.94,71.32c0.44,-0.19 0.89,-0.37 1.35,-0.54c0.64,-0.24 0.86,-0.76 0.72,-1.27c-0.39,-1.38 -1.64,-0.8 -7.88,2.25c-0.51,0.25 -0.64,0.96 -0.37,1.42c0.72,1.24 1.74,0.04 6.18,-1.86z" fill="#734D37" id="svg_14"/>
  <path d="m135.13,78.91c-0.68,0.05 -1.03,0.51 -1.03,1.03c0,1.44 1.31,1.06 7.04,0.43c0.69,-0.07 1.02,-0.51 1.02,-1.02c0,-1.56 -1.38,-0.9 -7.03,-0.44z" fill="#734D37" id="svg_15"/>
  <path d="m134.8,86.72c-1.26,-0.7 -2.21,1.17 -1.05,1.81c1.9,1.07 6.9,2.8 6.9,0.62c0,-1.79 -2,-0.28 -5.85,-2.43z" fill="#734D37" id="svg_16"/>
  <text fill="#000000" font-family="Times" font-size="24" font-weight="normal" id="svg_18" stroke-width="0" text-anchor="middle" x="88" xml:space="preserve" y="44.5">02 / 03 / 25</text>
 </g>
</svg>